<svg xmlns="http://www.w3.org/2000/svg" viewBox="0 0 64 64">
  <defs>
    <linearGradient id="bg" x1="0%" y1="0%" x2="100%" y2="100%">
      <stop offset="0%" style="stop-color:#1e3a5f"/>
      <stop offset="100%" style="stop-color:#0f2744"/>
    </linearGradient>
    <linearGradient id="accent" x1="0%" y1="0%" x2="100%" y2="100%">
      <stop offset="0%" style="stop-color:#3b82f6"/>
      <stop offset="100%" style="stop-color:#1d4ed8"/>
    </linearGradient>
  </defs>
  <rect width="64" height="64" rx="14" fill="url(#bg)"/>
  <g fill="none" stroke="white" stroke-width="2.5" stroke-linecap="round" stroke-linejoin="round">
    <!-- Folder base -->
    <path d="M14 22h10l4 4h22a2 2 0 0 1 2 2v18a2 2 0 0 1-2 2H14a2 2 0 0 1-2-2V24a2 2 0 0 1 2-2z" fill="url(#accent)" stroke="none" opacity="0.3"/>
    <path d="M14 22h10l4 4h22a2 2 0 0 1 2 2v18a2 2 0 0 1-2 2H14a2 2 0 0 1-2-2V24a2 2 0 0 1 2-2z"/>
    <!-- Arrow up -->
    <path d="M32 44V32" stroke-width="3"/>
    <path d="M26 38l6-6 6 6" stroke-width="3"/>
  </g>
  <!-- Small share dots -->
  <circle cx="50" cy="18" r="4" fill="#3b82f6"/>
  <circle cx="56" cy="26" r="3" fill="#10b981"/>
  <circle cx="44" cy="14" r="2.5" fill="#f59e0b"/>
</svg>
